<?xml version="1.0"?>
<svg xmlns="http://www.w3.org/2000/svg" xmlns:xlink="http://www.w3.org/1999/xlink" xmlns:svgjs="http://svgjs.com/svgjs" version="1.1" width="512" height="512" x="0" y="0" viewBox="0 0 512.001 512.001" style="enable-background:new 0 0 512 512" xml:space="preserve" class=""><g>
<g xmlns="http://www.w3.org/2000/svg">
	<g>
		<path d="M469.366,211.999c15.292-107.828,9.496-66.378,27.235-194.94c1.439-10.435-8.067-19.068-18.308-16.649l-13.226,3.124    c-53.936,12.74-100.722,50.228-127.535,101.464c-25.947-9.199-53.397-13.991-81.531-13.991c-27.177,0-53.715,4.476-78.878,13.071    C150.093,52.934,103.127,15.622,49.138,3.116l-11.744-2.72c-4.816-1.116-9.881,0.216-13.527,3.562s-5.406,8.275-4.707,13.173    c17.76,124.259,11.937,84.083,27.35,188.898C14.164,254.475-2.965,313.935,0.435,376.853c0.344,6.35,4.653,11.793,10.756,13.584    c9.204,2.701,116.335-3.147,187.185,92.11c12.945,17.404,32.366,27.803,53.742,28.929c2.546,0.682,5.078,0.72,7.767,0    c21.374-1.126,40.796-11.525,53.739-28.927c75.716-101.789,171.77-87.589,187.187-92.112c6.102-1.791,10.411-7.234,10.755-13.584    C514.805,316.912,499.453,259.752,469.366,211.999z M463.859,34.886c-14.097,102.169-9.879,71.967-19.956,143.021    c-21.8-24.831-48.11-45.858-78.673-61.135C386.797,76.859,422.524,47.112,463.859,34.886z M256.001,121.007    c55.688,0,108.422,21.434,149.873,60.611c-61.253,5.811-111.359,52.054-121.381,112.192c-0.043,0.258-0.079,0.517-0.108,0.777    l-8.883,78.364c-5.903-2.85-12.519-4.449-19.501-4.449s-13.598,1.599-19.501,4.449l-8.883-78.364    c-0.029-0.26-0.065-0.519-0.108-0.777c-10.034-60.198-60.187-106.387-121.381-112.192    C147.578,142.441,200.313,121.007,256.001,121.007z M149.254,115.569c-28.622,13.91-54.628,33.328-77.205,57.934    c-10.317-70.163-6.071-40.832-20.044-138.59C92.611,47.199,127.763,76.418,149.254,115.569z M241.001,478.805    c-7.271-2.797-13.693-7.627-18.554-14.162c-31.747-42.682-90.684-94.468-192.428-102.593    c-0.126-55.018,17.561-108.343,49.802-151.044h13.527c51.149,0,96.009,37.532,104.507,87.364l13.242,116.821    c0.302,2.654,1.401,5.433,3.166,7.647c0.009,0.011,0.016,0.023,0.025,0.034l26.713,33.39V478.805z M256.001,426.99l-14.333-17.916    c1.894-6.116,7.603-10.572,14.333-10.572s12.439,4.456,14.333,10.572L256.001,426.99z M289.554,464.643    c-4.861,6.534-11.283,11.364-18.554,14.161v-22.543l26.713-33.39c0.01-0.012,0.018-0.026,0.028-0.038    c1.786-2.245,2.865-5.019,3.164-7.643l13.242-116.821c8.499-49.831,53.357-87.364,104.507-87.364h13.526    c32.24,42.699,49.926,96.027,49.801,151.04C447.943,363.605,359.281,370.904,289.554,464.643z" fill="#ffffff" data-original="#000000" style="" class=""/>
	</g>
</g>
<g xmlns="http://www.w3.org/2000/svg">
	<g>
		<circle cx="134.999" cy="286.006" r="15" fill="#ffffff" data-original="#000000" style="" class=""/>
	</g>
</g>
<g xmlns="http://www.w3.org/2000/svg">
	<g>
		<circle cx="376.995" cy="286.006" r="15" fill="#ffffff" data-original="#000000" style="" class=""/>
	</g>
</g>
<g xmlns="http://www.w3.org/2000/svg">
</g>
<g xmlns="http://www.w3.org/2000/svg">
</g>
<g xmlns="http://www.w3.org/2000/svg">
</g>
<g xmlns="http://www.w3.org/2000/svg">
</g>
<g xmlns="http://www.w3.org/2000/svg">
</g>
<g xmlns="http://www.w3.org/2000/svg">
</g>
<g xmlns="http://www.w3.org/2000/svg">
</g>
<g xmlns="http://www.w3.org/2000/svg">
</g>
<g xmlns="http://www.w3.org/2000/svg">
</g>
<g xmlns="http://www.w3.org/2000/svg">
</g>
<g xmlns="http://www.w3.org/2000/svg">
</g>
<g xmlns="http://www.w3.org/2000/svg">
</g>
<g xmlns="http://www.w3.org/2000/svg">
</g>
<g xmlns="http://www.w3.org/2000/svg">
</g>
<g xmlns="http://www.w3.org/2000/svg">
</g>
</g></svg>
